<?xml version="1.0" standalone="no"?>
<!DOCTYPE svg PUBLIC "-//W3C//DTD SVG 20010904//EN"
 "http://www.w3.org/TR/2001/REC-SVG-20010904/DTD/svg10.dtd">
<svg version="1.0" xmlns="http://www.w3.org/2000/svg"
 width="512.000000pt" height="512.000000pt" viewBox="0 0 512.000000 512.000000"
 preserveAspectRatio="xMidYMid meet">
<metadata>
Created by potrace 1.14, written by Peter Selinger 2001-2017
</metadata>
<g transform="translate(0.000000,512.000000) scale(0.100000,-0.100000)"
fill="#000000" stroke="none">
<path d="M1059 5116 c-2 -2 -26 -6 -54 -9 -62 -7 -154 -25 -166 -32 -5 -4 -19
-8 -30 -10 -37 -7 -93 -27 -106 -38 -7 -5 -13 -7 -13 -3 0 11 -175 -85 -231
-127 -62 -46 -139 -114 -139 -122 0 -3 -8 -13 -17 -23 -38 -40 -67 -84 -89
-132 -9 -19 -21 -38 -26 -41 -5 -3 -9 -9 -9 -13 1 -3 1 -7 0 -8 -3 -10 -11
-46 -14 -63 -2 -11 -7 -31 -13 -45 -13 -34 -11 -3979 3 -4000 8 -13 12 -27 17
-67 1 -7 6 -13 11 -13 6 0 8 -3 4 -6 -8 -8 35 -93 63 -121 11 -13 18 -23 14
-23 -4 0 13 -20 37 -45 24 -25 47 -45 51 -45 4 0 19 -11 34 -25 15 -14 38 -28
51 -31 13 -4 23 -9 23 -13 0 -9 50 -27 130 -45 57 -14 271 -16 1695 -15 1558
0 1633 1 1699 19 93 25 170 67 236 127 14 13 28 23 32 23 5 0 8 5 8 11 0 7 7
17 15 23 8 6 30 38 49 70 24 40 50 68 79 85 59 35 136 94 137 104 0 4 11 18
25 31 13 13 22 26 18 29 -3 4 -1 7 5 7 7 0 12 7 12 15 0 8 4 15 9 15 14 0 71
145 76 195 1 11 3 54 4 95 1 74 2 75 36 99 119 81 220 232 243 361 14 82 7
3215 -8 3215 -1 0 -3 9 -5 19 -2 11 -7 31 -11 45 -4 14 -8 29 -9 34 -2 4 -4
10 -5 15 -1 4 -2 10 -1 15 0 4 -4 7 -9 7 -6 0 -10 7 -10 15 0 16 -53 110 -78
138 -8 9 -13 17 -10 17 7 0 -85 93 -130 133 -18 15 -36 27 -41 27 -5 0 -11 3
-13 8 -9 21 -146 77 -248 103 -71 17 -154 18 -1701 18 -894 1 -1628 -1 -1630
-3z"/>
</g>
</svg>
